<?xml version="1.0" standalone="no"?>
<!DOCTYPE svg PUBLIC "-//W3C//DTD SVG 20010904//EN"
 "http://www.w3.org/TR/2001/REC-SVG-20010904/DTD/svg10.dtd">
<svg version="1.0" xmlns="http://www.w3.org/2000/svg"
 width="512.000000pt" height="512.000000pt" viewBox="0 0 512.000000 512.000000"
 preserveAspectRatio="xMidYMid meet">
<metadata>
Created by potrace 1.14, written by Peter Selinger 2001-2017
</metadata>
<g transform="translate(0.000000,512.000000) scale(0.100000,-0.100000)"
fill="#000000" stroke="none">
<path d="M2409 5116 c-2 -2 -31 -6 -64 -10 -65 -7 -103 -13 -150 -23 -16 -4
-33 -6 -37 -5 -13 3 -80 -243 -107 -393 -6 -33 -13 -69 -15 -80 -4 -18 -21
-134 -32 -210 -8 -56 -14 -110 -19 -170 -3 -33 -8 -78 -10 -100 -21 -196 -28
-879 -11 -1110 4 -66 8 -125 9 -132 0 -10 57 16 102 47 6 4 39 17 75 28 57 18
83 25 150 39 124 26 398 23 550 -7 102 -19 229 -70 273 -108 9 -8 19 -13 21
-11 27 28 28 1027 2 1244 -2 11 -6 61 -11 110 -4 50 -9 97 -10 106 -2 9 -6 40
-10 70 -15 124 -60 369 -86 464 -5 22 -14 56 -19 75 -4 19 -15 58 -24 86 -16
51 -16 51 -66 58 -56 8 -51 7 -105 18 -39 8 -399 21 -406 14z"/>
<path d="M1845 4972 c-218 -95 -394 -213 -555 -372 -58 -58 -117 -119 -131
-135 -214 -265 -339 -540 -403 -890 -24 -128 -24 -413 0 -550 20 -118 27 -151
35 -166 5 -9 46 -39 91 -65 45 -27 90 -53 99 -59 10 -5 30 -17 46 -26 15 -8
204 -118 418 -244 215 -126 435 -255 490 -287 l100 -58 13 32 c8 18 25 47 38
65 l24 32 -117 69 c-65 38 -172 101 -238 139 -66 39 -265 155 -443 258 -177
104 -319 192 -315 196 5 5 44 29 88 53 71 41 159 77 226 92 47 11 155 12 204
3 75 -14 183 -71 248 -133 51 -49 61 -55 59 -35 -24 190 -22 1090 3 1239 2 14
6 61 10 105 3 44 8 94 10 110 7 50 26 185 31 211 8 49 24 140 28 159 26 125
39 180 55 238 12 45 15 67 7 67 -6 0 -60 -22 -121 -48z"/>
<path d="M3150 5011 c0 -6 13 -65 30 -133 29 -119 83 -426 94 -538 11 -107 16
-155 21 -191 21 -175 28 -887 12 -1145 l-9 -131 55 51 c60 57 145 106 223 129
70 21 201 15 288 -13 72 -23 199 -85 241 -118 l25 -20 -198 -114 c-108 -63
-269 -157 -357 -208 -88 -51 -176 -102 -195 -115 -19 -13 -55 -34 -80 -47 -25
-13 -56 -31 -70 -39 -14 -9 -69 -42 -123 -73 l-98 -57 31 -42 c16 -22 30 -46
30 -51 1 -44 28 -30 626 319 335 195 616 364 625 375 15 17 21 43 44 175 18
102 23 304 12 430 -12 123 -18 158 -44 265 -114 467 -390 853 -803 1119 -52
34 -98 61 -103 61 -5 0 -21 8 -35 19 -24 16 -222 101 -236 101 -3 0 -6 -4 -6
-9z"/>
<path d="M2218 2136 c-38 -28 -37 -54 5 -223 l40 -163 296 0 297 0 41 162 c43
170 43 196 5 224 -25 19 -659 19 -684 0z"/>
<path d="M1913 1582 c-17 -9 -40 -28 -51 -42 -26 -33 -214 -777 -214 -844 0
-55 19 -88 72 -124 l34 -22 819 2 818 3 40 42 c55 59 55 83 4 288 -20 83 -38
157 -40 165 -86 358 -123 480 -159 516 -32 32 -80 34 -685 34 -552 -1 -609 -2
-638 -18z m742 -144 c166 -54 266 -177 279 -347 8 -100 -46 -225 -128 -297
-74 -64 -141 -88 -251 -88 -78 0 -98 4 -149 29 -78 37 -129 85 -171 159 -115
208 -18 456 209 536 54 20 162 23 211 8z"/>
<path d="M2462 1274 c-154 -77 -169 -281 -29 -382 124 -89 297 -27 342 122 13
42 13 61 -1 128 -10 48 -62 108 -117 134 -69 32 -129 31 -195 -2z"/>
<path d="M1887 393 c-10 -20 0 -340 11 -360 17 -30 50 -34 232 -31 l155 3 0
198 0 197 -197 0 c-108 0 -199 -3 -201 -7z"/>
<path d="M2439 398 c-1 -2 -2 -92 -3 -201 l-1 -198 125 3 125 3 0 195 0 195
-122 3 c-68 1 -124 1 -124 0z"/>
<path d="M2835 203 l0 -198 170 -3 c184 -3 208 2 223 47 4 14 8 98 8 186 l-1
160 -200 3 -200 2 0 -197z"/>
</g>
</svg>
